<svg xmlns="http://www.w3.org/2000/svg" viewBox="0 0 20 23.06"><defs><style>.cls-1{fill:#a0adbc;}.cls-2{fill:#173051;}</style></defs><g id="Layer_2" data-name="Layer 2"><g id="Layer_1-2" data-name="Layer 1"><path class="cls-1" d="M.65,18.48a1.53,1.53,0,0,1-.23-2.31,8.82,8.82,0,0,0,2.44-5.64c.42-4.41.91-6.94,5.68-8,0,0-.15-2.11,1.1-2.46a1.33,1.33,0,0,1,.79,0c.5.17,1.27.72,1.1,2.41,0,0,5.58.46,5.67,7.92a7.66,7.66,0,0,0,.21,1.78,8.39,8.39,0,0,0,2.05,3.94,1.78,1.78,0,0,1,.53,1,1.3,1.3,0,0,1-.43,1.18,1.66,1.66,0,0,1-1.09.39h-17a1.54,1.54,0,0,1-.81-.22Z"/><path class="cls-2" d="M7.08,20.25A3.08,3.08,0,0,0,10,23.06a2.94,2.94,0,0,0,2.83-2.81Z"/></g></g></svg>